{
    "asset" : {
        "generator" : "Khronos glTF Blender I/O v1.2.75",
        "version" : "2.0"
    },
    "scene" : 0,
    "scenes" : [
        {
            "name" : "Scene",
            "nodes" : [
                0,
                1,
                2,
                3,
                6,
                7
            ]
        }
    ],
    "nodes" : [
        {
            "name" : "Light",
            "rotation" : [
                0.16907577216625214,
                0.7558802962303162,
                -0.27217137813568115,
                0.570947527885437
            ],
            "translation" : [
                2.893632650375366,
                -0.5728745460510254,
                4.508747577667236
            ]
        },
        {
            "mesh" : 0,
            "name" : "Road"
        },
        {
            "name" : "BezierCurve"
        },
        {
            "mesh" : 1,
            "name" : "Plane",
            "translation" : [
                0,
                0,
                -10
            ]
        },
        {
            "camera" : 0,
            "name" : "Camera_Orientation",
            "rotation" : [
                -0.7071067690849304,
                0,
                0,
                0.7071067690849304
            ]
        },
        {
            "children" : [
                4
            ],
            "name" : "Camera",
            "rotation" : [
                0.358883798122406,
                -0.6092638373374939,
                0.358883798122406,
                0.6092638373374939
            ],
            "translation" : [
                -10.309999465942383,
                5.330000400543213,
                0.03999945893883705
            ]
        },
        {
            "children" : [
                5
            ],
            "mesh" : 2,
            "name" : "Cube",
            "rotation" : [
                0,
                -0.7071067690849304,
                0,
                0.7071067690849304
            ],
            "translation" : [
                0,
                1.0000468492507935,
                0
            ]
        },
        {
            "mesh" : 3,
            "name" : "Cube.001",
            "translation" : [
                3,
                1,
                -17
            ]
        }
    ],
    "cameras" : [
        {
            "name" : "Camera",
            "perspective" : {
                "yfov" : 0.4958353284296838,
                "zfar" : 100,
                "znear" : 0.10000000149011612
            },
            "type" : "perspective"
        }
    ],
    "materials" : [
        {
            "doubleSided" : true,
            "emissiveFactor" : [
                0,
                0,
                0
            ],
            "name" : "Material.001",
            "pbrMetallicRoughness" : {
                "baseColorTexture" : {
                    "index" : 0,
                    "texCoord" : 0
                },
                "metallicFactor" : 0,
                "roughnessFactor" : 0.5
            }
        },
        {
            "doubleSided" : true,
            "emissiveFactor" : [
                0,
                0,
                0
            ],
            "name" : "Material",
            "pbrMetallicRoughness" : {
                "baseColorTexture" : {
                    "index" : 1,
                    "texCoord" : 0
                },
                "metallicFactor" : 0,
                "roughnessFactor" : 0.5
            }
        },
        {
            "doubleSided" : true,
            "emissiveFactor" : [
                0,
                0,
                0
            ],
            "name" : "Material.002",
            "pbrMetallicRoughness" : {
                "baseColorTexture" : {
                    "index" : 2,
                    "texCoord" : 0
                },
                "metallicFactor" : 0,
                "roughnessFactor" : 0.5
            }
        },
        {
            "doubleSided" : true,
            "emissiveFactor" : [
                0,
                0,
                0
            ],
            "name" : "Material.003",
            "pbrMetallicRoughness" : {
                "baseColorTexture" : {
                    "index" : 3,
                    "texCoord" : 0
                },
                "metallicFactor" : 0,
                "roughnessFactor" : 0.5
            }
        }
    ],
    "meshes" : [
        {
            "name" : "Plane",
            "primitives" : [
                {
                    "attributes" : {
                        "POSITION" : 0,
                        "NORMAL" : 1,
                        "TEXCOORD_0" : 2
                    },
                    "indices" : 3,
                    "material" : 0
                }
            ]
        },
        {
            "name" : "Plane.001",
            "primitives" : [
                {
                    "attributes" : {
                        "POSITION" : 4,
                        "NORMAL" : 5,
                        "TEXCOORD_0" : 6
                    },
                    "indices" : 7,
                    "material" : 1
                }
            ]
        },
        {
            "name" : "Cube",
            "primitives" : [
                {
                    "attributes" : {
                        "POSITION" : 8,
                        "NORMAL" : 9,
                        "TEXCOORD_0" : 10
                    },
                    "indices" : 11,
                    "material" : 2
                }
            ]
        },
        {
            "name" : "Cube.001",
            "primitives" : [
                {
                    "attributes" : {
                        "POSITION" : 12,
                        "NORMAL" : 13,
                        "TEXCOORD_0" : 14
                    },
                    "indices" : 11,
                    "material" : 3
                }
            ]
        }
    ],
    "textures" : [
        {
            "source" : 0
        },
        {
            "source" : 1
        },
        {
            "source" : 2
        },
        {
            "source" : 3
        }
    ],
    "images" : [
        {
            "mimeType" : "image/jpeg",
            "name" : "road",
            "uri" : "road.jpg"
        },
        {
            "mimeType" : "image/jpeg",
            "name" : "grass",
            "uri" : "grass.jpg"
        },
        {
            "mimeType" : "image/png",
            "name" : "car",
            "uri" : "car.png"
        },
        {
            "mimeType" : "image/png",
            "name" : "black",
            "uri" : "black.png"
        }
    ],
    "accessors" : [
        {
            "bufferView" : 0,
            "componentType" : 5126,
            "count" : 1560,
            "max" : [
                30.655494689941406,
                0.06283032894134521,
                3.6668813228607178
            ],
            "min" : [
                -26.251995086669922,
                -0.09854674339294434,
                -34.63340759277344
            ],
            "type" : "VEC3"
        },
        {
            "bufferView" : 1,
            "componentType" : 5126,
            "count" : 1560,
            "type" : "VEC3"
        },
        {
            "bufferView" : 2,
            "componentType" : 5126,
            "count" : 1560,
            "type" : "VEC2"
        },
        {
            "bufferView" : 3,
            "componentType" : 5123,
            "count" : 2340,
            "type" : "SCALAR"
        },
        {
            "bufferView" : 4,
            "componentType" : 5126,
            "count" : 4,
            "max" : [
                34.51875686645508,
                0,
                34.51874923706055
            ],
            "min" : [
                -34.51875686645508,
                0,
                -34.51876449584961
            ],
            "type" : "VEC3"
        },
        {
            "bufferView" : 5,
            "componentType" : 5126,
            "count" : 4,
            "type" : "VEC3"
        },
        {
            "bufferView" : 6,
            "componentType" : 5126,
            "count" : 4,
            "type" : "VEC2"
        },
        {
            "bufferView" : 7,
            "componentType" : 5123,
            "count" : 6,
            "type" : "SCALAR"
        },
        {
            "bufferView" : 8,
            "componentType" : 5126,
            "count" : 24,
            "max" : [
                1,
                1,
                1
            ],
            "min" : [
                -1,
                -1,
                -1
            ],
            "type" : "VEC3"
        },
        {
            "bufferView" : 9,
            "componentType" : 5126,
            "count" : 24,
            "type" : "VEC3"
        },
        {
            "bufferView" : 10,
            "componentType" : 5126,
            "count" : 24,
            "type" : "VEC2"
        },
        {
            "bufferView" : 11,
            "componentType" : 5123,
            "count" : 36,
            "type" : "SCALAR"
        },
        {
            "bufferView" : 12,
            "componentType" : 5126,
            "count" : 24,
            "max" : [
                1,
                1,
                1
            ],
            "min" : [
                -1,
                -1,
                -1
            ],
            "type" : "VEC3"
        },
        {
            "bufferView" : 13,
            "componentType" : 5126,
            "count" : 24,
            "type" : "VEC3"
        },
        {
            "bufferView" : 14,
            "componentType" : 5126,
            "count" : 24,
            "type" : "VEC2"
        }
    ],
    "bufferViews" : [
        {
            "buffer" : 0,
            "byteLength" : 18720,
            "byteOffset" : 0
        },
        {
            "buffer" : 0,
            "byteLength" : 18720,
            "byteOffset" : 18720
        },
        {
            "buffer" : 0,
            "byteLength" : 12480,
            "byteOffset" : 37440
        },
        {
            "buffer" : 0,
            "byteLength" : 4680,
            "byteOffset" : 49920
        },
        {
            "buffer" : 0,
            "byteLength" : 48,
            "byteOffset" : 54600
        },
        {
            "buffer" : 0,
            "byteLength" : 48,
            "byteOffset" : 54648
        },
        {
            "buffer" : 0,
            "byteLength" : 32,
            "byteOffset" : 54696
        },
        {
            "buffer" : 0,
            "byteLength" : 12,
            "byteOffset" : 54728
        },
        {
            "buffer" : 0,
            "byteLength" : 288,
            "byteOffset" : 54740
        },
        {
            "buffer" : 0,
            "byteLength" : 288,
            "byteOffset" : 55028
        },
        {
            "buffer" : 0,
            "byteLength" : 192,
            "byteOffset" : 55316
        },
        {
            "buffer" : 0,
            "byteLength" : 72,
            "byteOffset" : 55508
        },
        {
            "buffer" : 0,
            "byteLength" : 288,
            "byteOffset" : 55580
        },
        {
            "buffer" : 0,
            "byteLength" : 288,
            "byteOffset" : 55868
        },
        {
            "buffer" : 0,
            "byteLength" : 192,
            "byteOffset" : 56156
        }
    ],
    "buffers" : [
        {
            "byteLength" : 56348,
            "uri" : "projekt.bin"
        }
    ]
}
